<svg xmlns="http://www.w3.org/2000/svg" width="3000" height="3000"><rect width="3000" height="3000" x="0" y="0" fill="#FFFFFF" id="backgorund"/><g transform="translate(10,10)" id="viz"><g id="arcs"><path d="M20.18169700521828,1490A545.314898276072,545.314898276072 0,0,1 1110.8114935573622,1490" fill="none" stroke="gray" stroke-width="30" opacity="0.5"/><path d="M1801.8529985990535,1490A39.340738056508826,39.340738056508826 0,0,1 1880.5344747120712,1490" fill="none" stroke="gray" stroke-width="30" opacity="0.5"/><path d="M107.7474163596248,1490A1165.5393470920742,1165.5393470920742 0,0,1 2438.826110543773,1490" fill="none" stroke="gray" stroke-width="30" opacity="0.5"/><path d="M1192.4516125609603,1490A623.1872489914065,623.1872489914065 0,0,1 2438.826110543773,1490" fill="none" stroke="gray" stroke-width="30" opacity="0.5"/><path d="M200.71738489764212,1490A1119.0543628230655,1119.0543628230655 0,0,1 2438.826110543773,1490" fill="none" stroke="gray" stroke-width="30" opacity="0.5"/><path d="M1958.490805723493,1490A240.16765241014014,240.16765241014014 0,0,1 2438.826110543773,1490" fill="none" stroke="gray" stroke-width="30" opacity="0.5"/><path d="M2041.3675744446332,1490A198.72926804957,198.72926804957 0,0,1 2438.826110543773,1490" fill="none" stroke="gray" stroke-width="30" opacity="0.5"/><path d="M296.5232996244886,1490A1071.1514054596423,1071.1514054596423 0,0,1 2438.826110543773,1490" fill="none" stroke="gray" stroke-width="30" opacity="0.5"/><path d="M1192.4516125609603,1490A40.35181351532685,40.35181351532685 0,0,1 1273.155239591614,1490" fill="none" stroke="gray" stroke-width="30" opacity="0.5"/><path d="M379.20652468061627,1490A135.72955416049575,135.72955416049575 0,0,1 107.7474163596248,1490" fill="none" stroke="gray" stroke-width="30" opacity="0.5"/><path d="M448.76706006602524,1490A170.5098218532002,170.5098218532002 0,0,1 107.7474163596248,1490" fill="none" stroke="gray" stroke-width="30" opacity="0.5"/><path d="M1362.3527699678577,1490A627.3026768041165,627.3026768041165 0,0,1 107.7474163596248,1490" fill="none" stroke="gray" stroke-width="30" opacity="0.5"/><path d="M2119.042910885469,1490A1005.6477472629222,1005.6477472629222 0,0,1 107.7474163596248,1490" fill="none" stroke="gray" stroke-width="30" opacity="0.5"/><path d="M2824.499356738375,1490A1358.375970189375,1358.375970189375 0,0,1 107.7474163596248,1490" fill="none" stroke="gray" stroke-width="30" opacity="0.5"/><path d="M1110.8114935573622,1490A709.6364159097436,709.6364159097436 0,0,1 2530.0843253768494,1490" fill="none" stroke="gray" stroke-width="30" opacity="0.5"/><path d="M2897.976208096481,1490A183.94594135981583,183.94594135981583 0,0,1 2530.0843253768494,1490" fill="none" stroke="gray" stroke-width="30" opacity="0.5"/><path d="M2190.7916699444063,1490A169.64632771622155,169.64632771622155 0,0,1 2530.0843253768494,1490" fill="none" stroke="gray" stroke-width="30" opacity="0.5"/><path d="M519.4217072881981,1490A1005.3313090443256,1005.3313090443256 0,0,1 2530.0843253768494,1490" fill="none" stroke="gray" stroke-width="30" opacity="0.5"/><path d="M590.0763545103712,1490A970.0039854332391,970.0039854332391 0,0,1 2530.0843253768494,1490" fill="none" stroke="gray" stroke-width="30" opacity="0.5"/><path d="M659.6368898957802,1490A935.2237177405345,935.2237177405345 0,0,1 2530.0843253768494,1490" fill="none" stroke="gray" stroke-width="30" opacity="0.5"/><path d="M2264.4830606484693,1490A132.80063236419005,132.80063236419005 0,0,1 2530.0843253768494,1490" fill="none" stroke="gray" stroke-width="30" opacity="0.5"/><path d="M1449.4500488351564,1490A540.3171382708465,540.3171382708465 0,0,1 2530.0843253768494,1490" fill="none" stroke="gray" stroke-width="30" opacity="0.5"/><path d="M2824.499356738375,1490A147.20751568076275,147.20751568076275 0,0,1 2530.0843253768494,1490" fill="none" stroke="gray" stroke-width="30" opacity="0.5"/><path d="M2614.321850991262,1490A42.118762807206394,42.118762807206394 0,0,1 2530.0843253768494,1490" fill="none" stroke="gray" stroke-width="30" opacity="0.5"/><path d="M296.5232996244886,1490A1116.7805128761804,1116.7805128761804 0,0,1 2530.0843253768494,1490" fill="none" stroke="gray" stroke-width="30" opacity="0.5"/><path d="M2682.6721781857655,1490A76.29392640445803,76.29392640445803 0,0,1 2530.0843253768494,1490" fill="none" stroke="gray" stroke-width="30" opacity="0.5"/><path d="M2349.6626127277345,1490A90.21085632455743,90.21085632455743 0,0,1 2530.0843253768494,1490" fill="none" stroke="gray" stroke-width="30" opacity="0.5"/><path d="M2751.022505380269,1490A110.4690900017099,110.4690900017099 0,0,1 2530.0843253768494,1490" fill="none" stroke="gray" stroke-width="30" opacity="0.5"/><path d="M1880.5344747120712,1490A344.04143107555547,344.04143107555547 0,0,1 1192.4516125609603,1490" fill="none" stroke="gray" stroke-width="30" opacity="0.5"/><path d="M2438.826110543773,1490A623.1872489914065,623.1872489914065 0,0,1 1192.4516125609603,1490" fill="none" stroke="gray" stroke-width="30" opacity="0.5"/><path d="M1273.155239591614,1490A40.35181351532685,40.35181351532685 0,0,1 1192.4516125609603,1490" fill="none" stroke="gray" stroke-width="30" opacity="0.5"/><path d="M2530.0843253768494,1490A668.8163564079446,668.8163564079446 0,0,1 1192.4516125609603,1490" fill="none" stroke="gray" stroke-width="30" opacity="0.5"/><path d="M1958.490805723493,1490A383.01959658126634,383.01959658126634 0,0,1 1192.4516125609603,1490" fill="none" stroke="gray" stroke-width="30" opacity="0.5"/><path d="M1449.4500488351564,1490A128.49921813709807,128.49921813709807 0,0,1 1192.4516125609603,1490" fill="none" stroke="gray" stroke-width="30" opacity="0.5"/><path d="M727.9872170902838,1490A263.63491609632086,263.63491609632086 0,0,1 200.71738489764212,1490" fill="none" stroke="gray" stroke-width="30" opacity="0.5"/><path d="M2897.976208096481,1490A1348.6294115994194,1348.6294115994194 0,0,1 200.71738489764212,1490" fill="none" stroke="gray" stroke-width="30" opacity="0.5"/><path d="M2967.53674348189,1490A1383.4096792921239,1383.4096792921239 0,0,1 200.71738489764212,1490" fill="none" stroke="gray" stroke-width="30" opacity="0.5"/><path d="M2190.7916699444063,1490A995.037142523382,995.037142523382 0,0,1 200.71738489764212,1490" fill="none" stroke="gray" stroke-width="30" opacity="0.5"/><path d="M448.76706006602524,1490A124.02483758419156,124.02483758419156 0,0,1 200.71738489764212,1490" fill="none" stroke="gray" stroke-width="30" opacity="0.5"/><path d="M519.4217072881981,1490A159.35216119527803,159.35216119527803 0,0,1 200.71738489764212,1490" fill="none" stroke="gray" stroke-width="30" opacity="0.5"/><path d="M107.7474163596248,1490A46.48498426900866,46.48498426900866 0,0,1 200.71738489764212,1490" fill="none" stroke="gray" stroke-width="30" opacity="0.5"/><path d="M659.6368898957802,1490A229.45975249906905,229.45975249906905 0,0,1 200.71738489764212,1490" fill="none" stroke="gray" stroke-width="30" opacity="0.5"/><path d="M1362.3527699678577,1490A580.8176925351078,580.8176925351078 0,0,1 200.71738489764212,1490" fill="none" stroke="gray" stroke-width="30" opacity="0.5"/><path d="M797.4316561215513,1490A298.3571356119546,298.3571356119546 0,0,1 200.71738489764212,1490" fill="none" stroke="gray" stroke-width="30" opacity="0.5"/><path d="M1519.0105842205653,1490A659.1465996614616,659.1465996614616 0,0,1 200.71738489764212,1490" fill="none" stroke="gray" stroke-width="30" opacity="0.5"/><path d="M2041.3675744446332,1490A920.3250947734955,920.3250947734955 0,0,1 200.71738489764212,1490" fill="none" stroke="gray" stroke-width="30" opacity="0.5"/><path d="M1588.5711196059742,1490A693.926867354166,693.926867354166 0,0,1 200.71738489764212,1490" fill="none" stroke="gray" stroke-width="30" opacity="0.5"/><path d="M2682.6721781857655,1490A1240.9773966440616,1240.9773966440616 0,0,1 200.71738489764212,1490" fill="none" stroke="gray" stroke-width="30" opacity="0.5"/><path d="M2751.022505380269,1490A1275.1525602413135,1275.1525602413135 0,0,1 200.71738489764212,1490" fill="none" stroke="gray" stroke-width="30" opacity="0.5"/><path d="M1656.9214468004775,1490A303.7808069239959,303.7808069239959 0,0,1 2264.4830606484693,1490" fill="none" stroke="gray" stroke-width="30" opacity="0.5"/><path d="M871.1230468256139,1490A696.6800069114277,696.6800069114277 0,0,1 2264.4830606484693,1490" fill="none" stroke="gray" stroke-width="30" opacity="0.5"/><path d="M2438.826110543773,1490A538.2366702879577,538.2366702879577 0,0,1 1362.3527699678577,1490" fill="none" stroke="gray" stroke-width="30" opacity="0.5"/><path d="M2967.53674348189,1490A802.5919867570161,802.5919867570161 0,0,1 1362.3527699678577,1490" fill="none" stroke="gray" stroke-width="30" opacity="0.5"/><path d="M1273.155239591614,1490A44.59876518812189,44.59876518812189 0,0,1 1362.3527699678577,1490" fill="none" stroke="gray" stroke-width="30" opacity="0.5"/><path d="M1725.2717739949812,1490A181.45950201356175,181.45950201356175 0,0,1 1362.3527699678577,1490" fill="none" stroke="gray" stroke-width="30" opacity="0.5"/><path d="M797.4316561215513,1490A282.4605569231532,282.4605569231532 0,0,1 1362.3527699678577,1490" fill="none" stroke="gray" stroke-width="30" opacity="0.5"/><path d="M951.4387661800205,1490A205.45700189391863,205.45700189391863 0,0,1 1362.3527699678577,1490" fill="none" stroke="gray" stroke-width="30" opacity="0.5"/><path d="M1656.9214468004775,1490A147.28433841630988,147.28433841630988 0,0,1 1362.3527699678577,1490" fill="none" stroke="gray" stroke-width="30" opacity="0.5"/><path d="M1801.8529985990535,1490A219.7501143155979,219.7501143155979 0,0,1 1362.3527699678577,1490" fill="none" stroke="gray" stroke-width="30" opacity="0.5"/><path d="M1449.4500488351564,1490A43.54863943364933,43.54863943364933 0,0,1 1362.3527699678577,1490" fill="none" stroke="gray" stroke-width="30" opacity="0.5"/><path d="M2824.499356738375,1490A731.0732933852586,731.0732933852586 0,0,1 1362.3527699678577,1490" fill="none" stroke="gray" stroke-width="30" opacity="0.5"/><path d="M1588.5711196059742,1490A113.10917481905824,113.10917481905824 0,0,1 1362.3527699678577,1490" fill="none" stroke="gray" stroke-width="30" opacity="0.5"/><path d="M1033.4659783713005,1490A164.44339579827863,164.44339579827863 0,0,1 1362.3527699678577,1490" fill="none" stroke="gray" stroke-width="30" opacity="0.5"/><path d="M296.5232996244886,1490A532.9147351716846,532.9147351716846 0,0,1 1362.3527699678577,1490" fill="none" stroke="gray" stroke-width="30" opacity="0.5"/><path d="M2349.6626127277345,1490A493.6549213799384,493.6549213799384 0,0,1 1362.3527699678577,1490" fill="none" stroke="gray" stroke-width="30" opacity="0.5"/><path d="M2264.4830606484693,1490A656.5221472342243,656.5221472342243 0,0,1 951.4387661800205,1490" fill="none" stroke="gray" stroke-width="30" opacity="0.5"/><path d="M1362.3527699678577,1490A205.45700189391863,205.45700189391863 0,0,1 951.4387661800205,1490" fill="none" stroke="gray" stroke-width="30" opacity="0.5"/><path d="M1110.8114935573622,1490A545.314898276072,545.314898276072 0,0,1 20.18169700521828,1490" fill="none" stroke="gray" stroke-width="30" opacity="0.5"/><path d="M727.9872170902838,1490A353.90276004253275,353.90276004253275 0,0,1 20.18169700521828,1490" fill="none" stroke="gray" stroke-width="30" opacity="0.5"/><path d="M1273.155239591614,1490A626.4867712931979,626.4867712931979 0,0,1 20.18169700521828,1490" fill="none" stroke="gray" stroke-width="30" opacity="0.5"/><path d="M590.0763545103712,1490A284.9473287525764,284.9473287525764 0,0,1 20.18169700521828,1490" fill="none" stroke="gray" stroke-width="30" opacity="0.5"/><path d="M659.6368898957802,1490A319.72759644528094,319.72759644528094 0,0,1 20.18169700521828,1490" fill="none" stroke="gray" stroke-width="30" opacity="0.5"/><path d="M871.1230468256139,1490A425.4706749101978,425.4706749101978 0,0,1 20.18169700521828,1490" fill="none" stroke="gray" stroke-width="30" opacity="0.5"/><path d="M2119.042910885469,1490A1049.4306069401255,1049.4306069401255 0,0,1 20.18169700521828,1490" fill="none" stroke="gray" stroke-width="30" opacity="0.5"/><path d="M2614.321850991262,1490A1297.070076993022,1297.070076993022 0,0,1 20.18169700521828,1490" fill="none" stroke="gray" stroke-width="30" opacity="0.5"/><path d="M1033.4659783713005,1490A506.6421406830411,506.6421406830411 0,0,1 20.18169700521828,1490" fill="none" stroke="gray" stroke-width="30" opacity="0.5"/><path d="M1880.5344747120712,1490A38.97816550571088,38.97816550571088 0,0,1 1958.490805723493,1490" fill="none" stroke="gray" stroke-width="30" opacity="0.5"/><path d="M2438.826110543773,1490A240.16765241014014,240.16765241014014 0,0,1 1958.490805723493,1490" fill="none" stroke="gray" stroke-width="30" opacity="0.5"/><path d="M1192.4516125609603,1490A383.01959658126634,383.01959658126634 0,0,1 1958.490805723493,1490" fill="none" stroke="gray" stroke-width="30" opacity="0.5"/><path d="M1801.8529985990535,1490A78.3189035622197,78.3189035622197 0,0,1 1958.490805723493,1490" fill="none" stroke="gray" stroke-width="30" opacity="0.5"/><path d="M2190.7916699444063,1490A74.71204774988655,74.71204774988655 0,0,1 2041.3675744446332,1490" fill="none" stroke="gray" stroke-width="30" opacity="0.5"/><path d="M2530.0843253768494,1490A244.3583754661081,244.3583754661081 0,0,1 2041.3675744446332,1490" fill="none" stroke="gray" stroke-width="30" opacity="0.5"/><path d="M1725.2717739949812,1490A158.04790022482598,158.04790022482598 0,0,1 2041.3675744446332,1490" fill="none" stroke="gray" stroke-width="30" opacity="0.5"/><path d="M200.71738489764212,1490A920.3250947734955,920.3250947734955 0,0,1 2041.3675744446332,1490" fill="none" stroke="gray" stroke-width="30" opacity="0.5"/><path d="M1519.0105842205653,1490A261.17849511203394,261.17849511203394 0,0,1 2041.3675744446332,1490" fill="none" stroke="gray" stroke-width="30" opacity="0.5"/><path d="M2119.042910885469,1490A38.83766822041798,38.83766822041798 0,0,1 2041.3675744446332,1490" fill="none" stroke="gray" stroke-width="30" opacity="0.5"/><path d="M1880.5344747120712,1490A39.340738056508826,39.340738056508826 0,0,1 1801.8529985990535,1490" fill="none" stroke="gray" stroke-width="30" opacity="0.5"/><path d="M2530.0843253768494,1490A364.11566338889793,364.11566338889793 0,0,1 1801.8529985990535,1490" fill="none" stroke="gray" stroke-width="30" opacity="0.5"/><path d="M1958.490805723493,1490A78.3189035622197,78.3189035622197 0,0,1 1801.8529985990535,1490" fill="none" stroke="gray" stroke-width="30" opacity="0.5"/><path d="M2041.3675744446332,1490A119.75728792278983,119.75728792278983 0,0,1 1801.8529985990535,1490" fill="none" stroke="gray" stroke-width="30" opacity="0.5"/><path d="M1588.5711196059742,1490A106.64093949653966,106.64093949653966 0,0,1 1801.8529985990535,1490" fill="none" stroke="gray" stroke-width="30" opacity="0.5"/><path d="M2682.6721781857655,1490A440.40958979335596,440.40958979335596 0,0,1 1801.8529985990535,1490" fill="none" stroke="gray" stroke-width="30" opacity="0.5"/><path d="M1519.0105842205653,1490A34.780267692704456,34.780267692704456 0,0,1 1449.4500488351564,1490" fill="none" stroke="gray" stroke-width="30" opacity="0.5"/><path d="M1656.9214468004775,1490A583.7889549689487,583.7889549689487 0,0,1 2824.499356738375,1490" fill="none" stroke="gray" stroke-width="30" opacity="0.5"/><path d="M20.18169700521828,1490A506.6421406830411,506.6421406830411 0,0,1 1033.4659783713005,1490" fill="none" stroke="gray" stroke-width="30" opacity="0.5"/><path d="M871.1230468256139,1490A81.1714657728433,81.1714657728433 0,0,1 1033.4659783713005,1490" fill="none" stroke="gray" stroke-width="30" opacity="0.5"/><path d="M1110.8114935573622,1490A407.1440969664368,407.1440969664368 0,0,1 296.5232996244886,1490" fill="none" stroke="gray" stroke-width="30" opacity="0.5"/><path d="M727.9872170902838,1490A215.73195873289762,215.73195873289762 0,0,1 296.5232996244886,1490" fill="none" stroke="gray" stroke-width="30" opacity="0.5"/><path d="M2897.976208096481,1490A1300.7264542359962,1300.7264542359962 0,0,1 296.5232996244886,1490" fill="none" stroke="gray" stroke-width="30" opacity="0.5"/><path d="M379.20652468061627,1490A41.34161252806385,41.34161252806385 0,0,1 296.5232996244886,1490" fill="none" stroke="gray" stroke-width="30" opacity="0.5"/><path d="M2967.53674348189,1490A1335.5067219287007,1335.5067219287007 0,0,1 296.5232996244886,1490" fill="none" stroke="gray" stroke-width="30" opacity="0.5"/><path d="M448.76706006602524,1490A76.12188022076833,76.12188022076833 0,0,1 296.5232996244886,1490" fill="none" stroke="gray" stroke-width="30" opacity="0.5"/><path d="M519.4217072881981,1490A111.44920383185479,111.44920383185479 0,0,1 296.5232996244886,1490" fill="none" stroke="gray" stroke-width="30" opacity="0.5"/><path d="M107.7474163596248,1490A94.38794163243189,94.38794163243189 0,0,1 296.5232996244886,1490" fill="none" stroke="gray" stroke-width="30" opacity="0.5"/><path d="M1725.2717739949812,1490A714.3742371852463,714.3742371852463 0,0,1 296.5232996244886,1490" fill="none" stroke="gray" stroke-width="30" opacity="0.5"/><path d="M590.0763545103712,1490A146.7765274429413,146.7765274429413 0,0,1 296.5232996244886,1490" fill="none" stroke="gray" stroke-width="30" opacity="0.5"/><path d="M200.71738489764212,1490A47.902957363423226,47.902957363423226 0,0,1 296.5232996244886,1490" fill="none" stroke="gray" stroke-width="30" opacity="0.5"/><path d="M2264.4830606484693,1490A983.9798805119904,983.9798805119904 0,0,1 296.5232996244886,1490" fill="none" stroke="gray" stroke-width="30" opacity="0.5"/><path d="M797.4316561215513,1490A250.45417824853138,250.45417824853138 0,0,1 296.5232996244886,1490" fill="none" stroke="gray" stroke-width="30" opacity="0.5"/><path d="M951.4387661800205,1490A327.45773327776595,327.45773327776595 0,0,1 296.5232996244886,1490" fill="none" stroke="gray" stroke-width="30" opacity="0.5"/><path d="M20.18169700521828,1490A138.17080130963515,138.17080130963515 0,0,1 296.5232996244886,1490" fill="none" stroke="gray" stroke-width="30" opacity="0.5"/><path d="M2614.321850991262,1490A1158.8992756833868,1158.8992756833868 0,0,1 296.5232996244886,1490" fill="none" stroke="gray" stroke-width="30" opacity="0.5"/><path d="M2349.6626127277345,1490A1026.569656551623,1026.569656551623 0,0,1 296.5232996244886,1490" fill="none" stroke="gray" stroke-width="30" opacity="0.5"/><path d="M2751.022505380269,1490A1227.2496028778903,1227.2496028778903 0,0,1 296.5232996244886,1490" fill="none" stroke="gray" stroke-width="30" opacity="0.5"/><path d="M379.20652468061627,1490A985.2280440235592,985.2280440235592 0,0,1 2349.6626127277345,1490" fill="none" stroke="gray" stroke-width="30" opacity="0.5"/><path d="M951.4387661800205,1490A699.111923273857,699.111923273857 0,0,1 2349.6626127277345,1490" fill="none" stroke="gray" stroke-width="30" opacity="0.5"/><path d="M1033.4659783713005,1490A658.098317178217,658.098317178217 0,0,1 2349.6626127277345,1490" fill="none" stroke="gray" stroke-width="30" opacity="0.5"/><path d="M1362.3527699678577,1490A125.77063820524779,125.77063820524779 0,0,1 1110.8114935573622,1490" fill="none" stroke="gray" stroke-width="30" opacity="0.5"/><path d="M1656.9214468004775,1490A273.05497662155767,273.05497662155767 0,0,1 1110.8114935573622,1490" fill="none" stroke="gray" stroke-width="30" opacity="0.5"/><path d="M2614.321850991262,1490A87.74787022374448,87.74787022374448 0,0,1 2438.826110543773,1490" fill="none" stroke="gray" stroke-width="30" opacity="0.5"/><path d="M2751.022505380269,1490A156.098197418248,156.098197418248 0,0,1 2438.826110543773,1490" fill="none" stroke="gray" stroke-width="30" opacity="0.5"/><path d="M1801.8529985990535,1490A264.3488795037198,264.3488795037198 0,0,1 1273.155239591614,1490" fill="none" stroke="gray" stroke-width="30" opacity="0.5"/><path d="M1449.4500488351564,1490A88.14740462177122,88.14740462177122 0,0,1 1273.155239591614,1490" fill="none" stroke="gray" stroke-width="30" opacity="0.5"/><path d="M2438.826110543773,1490A1165.5393470920742,1165.5393470920742 0,0,1 107.7474163596248,1490" fill="none" stroke="gray" stroke-width="30" opacity="0.5"/><path d="M519.4217072881981,1490A205.83714546428666,205.83714546428666 0,0,1 107.7474163596248,1490" fill="none" stroke="gray" stroke-width="30" opacity="0.5"/><path d="M590.0763545103712,1490A241.16446907537318,241.16446907537318 0,0,1 107.7474163596248,1490" fill="none" stroke="gray" stroke-width="30" opacity="0.5"/><path d="M200.71738489764212,1490A46.48498426900866,46.48498426900866 0,0,1 107.7474163596248,1490" fill="none" stroke="gray" stroke-width="30" opacity="0.5"/><path d="M797.4316561215513,1490A344.84211988096325,344.84211988096325 0,0,1 107.7474163596248,1490" fill="none" stroke="gray" stroke-width="30" opacity="0.5"/><path d="M1801.8529985990535,1490A847.0527911197144,847.0527911197144 0,0,1 107.7474163596248,1490" fill="none" stroke="gray" stroke-width="30" opacity="0.5"/><path d="M1033.4659783713005,1490A462.85928100583783,462.85928100583783 0,0,1 107.7474163596248,1490" fill="none" stroke="gray" stroke-width="30" opacity="0.5"/><path d="M2349.6626127277345,1490A1120.9575981840549,1120.9575981840549 0,0,1 107.7474163596248,1490" fill="none" stroke="gray" stroke-width="30" opacity="0.5"/><path d="M379.20652468061627,1490A1075.4389003481165,1075.4389003481165 0,0,1 2530.0843253768494,1490" fill="none" stroke="gray" stroke-width="30" opacity="0.5"/><path d="M2438.826110543773,1490A45.62910741653809,45.62910741653809 0,0,1 2530.0843253768494,1490" fill="none" stroke="gray" stroke-width="30" opacity="0.5"/><path d="M1273.155239591614,1490A628.4645428926177,628.4645428926177 0,0,1 2530.0843253768494,1490" fill="none" stroke="gray" stroke-width="30" opacity="0.5"/><path d="M1192.4516125609603,1490A668.8163564079446,668.8163564079446 0,0,1 2530.0843253768494,1490" fill="none" stroke="gray" stroke-width="30" opacity="0.5"/><path d="M951.4387661800205,1490A789.3227795984144,789.3227795984144 0,0,1 2530.0843253768494,1490" fill="none" stroke="gray" stroke-width="30" opacity="0.5"/><path d="M2041.3675744446332,1490A244.3583754661081,244.3583754661081 0,0,1 2530.0843253768494,1490" fill="none" stroke="gray" stroke-width="30" opacity="0.5"/><path d="M2119.042910885469,1490A205.52070724569012,205.52070724569012 0,0,1 2530.0843253768494,1490" fill="none" stroke="gray" stroke-width="30" opacity="0.5"/><path d="M1110.8114935573622,1490A40.82005950179905,40.82005950179905 0,0,1 1192.4516125609603,1490" fill="none" stroke="gray" stroke-width="30" opacity="0.5"/><path d="M2190.7916699444063,1490A499.170028691723,499.170028691723 0,0,1 1192.4516125609603,1490" fill="none" stroke="gray" stroke-width="30" opacity="0.5"/><path d="M1725.2717739949812,1490A266.4100807170105,266.4100807170105 0,0,1 1192.4516125609603,1490" fill="none" stroke="gray" stroke-width="30" opacity="0.5"/><path d="M1588.5711196059742,1490A198.05975352250698,198.05975352250698 0,0,1 1192.4516125609603,1490" fill="none" stroke="gray" stroke-width="30" opacity="0.5"/><path d="M2682.6721781857655,1490A745.1102828124026,745.1102828124026 0,0,1 1192.4516125609603,1490" fill="none" stroke="gray" stroke-width="30" opacity="0.5"/><path d="M871.1230468256139,1490A335.2028309639859,335.2028309639859 0,0,1 200.71738489764212,1490" fill="none" stroke="gray" stroke-width="30" opacity="0.5"/><path d="M1033.4659783713005,1490A416.3742967368292,416.3742967368292 0,0,1 200.71738489764212,1490" fill="none" stroke="gray" stroke-width="30" opacity="0.5"/><path d="M1880.5344747120712,1490A191.97429296819905,191.97429296819905 0,0,1 2264.4830606484693,1490" fill="none" stroke="gray" stroke-width="30" opacity="0.5"/><path d="M1110.8114935573622,1490A125.77063820524779,125.77063820524779 0,0,1 1362.3527699678577,1490" fill="none" stroke="gray" stroke-width="30" opacity="0.5"/><path d="M2897.976208096481,1490A767.8117190643117,767.8117190643117 0,0,1 1362.3527699678577,1490" fill="none" stroke="gray" stroke-width="30" opacity="0.5"/><path d="M1880.5344747120712,1490A259.0908523721067,259.0908523721067 0,0,1 1362.3527699678577,1490" fill="none" stroke="gray" stroke-width="30" opacity="0.5"/><path d="M379.20652468061627,1490A491.57312264362076,491.57312264362076 0,0,1 1362.3527699678577,1490" fill="none" stroke="gray" stroke-width="30" opacity="0.5"/><path d="M519.4217072881981,1490A421.4655313398298,421.4655313398298 0,0,1 1362.3527699678577,1490" fill="none" stroke="gray" stroke-width="30" opacity="0.5"/><path d="M107.7474163596248,1490A627.3026768041165,627.3026768041165 0,0,1 1362.3527699678577,1490" fill="none" stroke="gray" stroke-width="30" opacity="0.5"/><path d="M2530.0843253768494,1490A583.8657777044958,583.8657777044958 0,0,1 1362.3527699678577,1490" fill="none" stroke="gray" stroke-width="30" opacity="0.5"/><path d="M1192.4516125609603,1490A84.95057870344874,84.95057870344874 0,0,1 1362.3527699678577,1490" fill="none" stroke="gray" stroke-width="30" opacity="0.5"/><path d="M20.18169700521828,1490A671.0855364813198,671.0855364813198 0,0,1 1362.3527699678577,1490" fill="none" stroke="gray" stroke-width="30" opacity="0.5"/><path d="M1958.490805723493,1490A298.0690178778176,298.0690178778176 0,0,1 1362.3527699678577,1490" fill="none" stroke="gray" stroke-width="30" opacity="0.5"/><path d="M1519.0105842205653,1490A78.32890712635378,78.32890712635378 0,0,1 1362.3527699678577,1490" fill="none" stroke="gray" stroke-width="30" opacity="0.5"/><path d="M2119.042910885469,1490A378.3450704588057,378.3450704588057 0,0,1 1362.3527699678577,1490" fill="none" stroke="gray" stroke-width="30" opacity="0.5"/><path d="M2614.321850991262,1490A625.9845405117022,625.9845405117022 0,0,1 1362.3527699678577,1490" fill="none" stroke="gray" stroke-width="30" opacity="0.5"/><path d="M519.4217072881981,1490A216.00852944591117,216.00852944591117 0,0,1 951.4387661800205,1490" fill="none" stroke="gray" stroke-width="30" opacity="0.5"/><path d="M1725.2717739949812,1490A386.9165039074804,386.9165039074804 0,0,1 951.4387661800205,1490" fill="none" stroke="gray" stroke-width="30" opacity="0.5"/><path d="M590.0763545103712,1490A180.68120583482465,180.68120583482465 0,0,1 951.4387661800205,1490" fill="none" stroke="gray" stroke-width="30" opacity="0.5"/><path d="M659.6368898957802,1490A145.90093814212014,145.90093814212014 0,0,1 951.4387661800205,1490" fill="none" stroke="gray" stroke-width="30" opacity="0.5"/><path d="M797.4316561215513,1490A77.00355502923458,77.00355502923458 0,0,1 951.4387661800205,1490" fill="none" stroke="gray" stroke-width="30" opacity="0.5"/><path d="M871.1230468256139,1490A40.157859677203305,40.157859677203305 0,0,1 951.4387661800205,1490" fill="none" stroke="gray" stroke-width="30" opacity="0.5"/><path d="M2349.6626127277345,1490A699.111923273857,699.111923273857 0,0,1 951.4387661800205,1490" fill="none" stroke="gray" stroke-width="30" opacity="0.5"/><path d="M2751.022505380269,1490A899.7918696001243,899.7918696001243 0,0,1 951.4387661800205,1490" fill="none" stroke="gray" stroke-width="30" opacity="0.5"/><path d="M2190.7916699444063,1490A116.15043211045668,116.15043211045668 0,0,1 1958.490805723493,1490" fill="none" stroke="gray" stroke-width="30" opacity="0.5"/><path d="M2041.3675744446332,1490A41.438384360570126,41.438384360570126 0,0,1 1958.490805723493,1490" fill="none" stroke="gray" stroke-width="30" opacity="0.5"/><path d="M2119.042910885469,1490A80.27605258098811,80.27605258098811 0,0,1 1958.490805723493,1490" fill="none" stroke="gray" stroke-width="30" opacity="0.5"/><path d="M448.76706006602524,1490A211.17799337979432,211.17799337979432 0,0,1 871.1230468256139,1490" fill="none" stroke="gray" stroke-width="30" opacity="0.5"/><path d="M20.18169700521828,1490A425.4706749101978,425.4706749101978 0,0,1 871.1230468256139,1490" fill="none" stroke="gray" stroke-width="30" opacity="0.5"/><path d="M1033.4659783713005,1490A81.1714657728433,81.1714657728433 0,0,1 871.1230468256139,1490" fill="none" stroke="gray" stroke-width="30" opacity="0.5"/><path d="M296.5232996244886,1490A872.4221374100723,872.4221374100723 0,0,1 2041.3675744446332,1490" fill="none" stroke="gray" stroke-width="30" opacity="0.5"/><path d="M2264.4830606484693,1490A231.31503102470788,231.31503102470788 0,0,1 1801.8529985990535,1490" fill="none" stroke="gray" stroke-width="30" opacity="0.5"/><path d="M797.4316561215513,1490A502.2106712387511,502.2106712387511 0,0,1 1801.8529985990535,1490" fill="none" stroke="gray" stroke-width="30" opacity="0.5"/><path d="M2897.976208096481,1490A36.73842567905308,36.73842567905308 0,0,1 2824.499356738375,1490" fill="none" stroke="gray" stroke-width="30" opacity="0.5"/><path d="M2967.53674348189,1490A71.51869337175754,71.51869337175754 0,0,1 2824.499356738375,1490" fill="none" stroke="gray" stroke-width="30" opacity="0.5"/><path d="M1588.5711196059742,1490A617.9641185662003,617.9641185662003 0,0,1 2824.499356738375,1490" fill="none" stroke="gray" stroke-width="30" opacity="0.5"/><path d="M296.5232996244886,1490A1263.9880285569432,1263.9880285569432 0,0,1 2824.499356738375,1490" fill="none" stroke="gray" stroke-width="30" opacity="0.5"/><path d="M448.76706006602524,1490A292.3494591526376,292.3494591526376 0,0,1 1033.4659783713005,1490" fill="none" stroke="gray" stroke-width="30" opacity="0.5"/><path d="M200.71738489764212,1490A416.3742967368292,416.3742967368292 0,0,1 1033.4659783713005,1490" fill="none" stroke="gray" stroke-width="30" opacity="0.5"/><path d="M727.9872170902838,1490A810.8376978187254,810.8376978187254 0,0,1 2349.6626127277345,1490" fill="none" stroke="gray" stroke-width="30" opacity="0.5"/><path d="M1880.5344747120712,1490A234.56406900783168,234.56406900783168 0,0,1 2349.6626127277345,1490" fill="none" stroke="gray" stroke-width="30" opacity="0.5"/><path d="M2967.53674348189,1490A308.9370653770777,308.9370653770777 0,0,1 2349.6626127277345,1490" fill="none" stroke="gray" stroke-width="30" opacity="0.5"/><path d="M2190.7916699444063,1490A79.43547139166412,79.43547139166412 0,0,1 2349.6626127277345,1490" fill="none" stroke="gray" stroke-width="30" opacity="0.5"/><path d="M107.7474163596248,1490A1120.9575981840549,1120.9575981840549 0,0,1 2349.6626127277345,1490" fill="none" stroke="gray" stroke-width="30" opacity="0.5"/><path d="M2530.0843253768494,1490A90.21085632455743,90.21085632455743 0,0,1 2349.6626127277345,1490" fill="none" stroke="gray" stroke-width="30" opacity="0.5"/><path d="M200.71738489764212,1490A1074.4726139150462,1074.4726139150462 0,0,1 2349.6626127277345,1490" fill="none" stroke="gray" stroke-width="30" opacity="0.5"/><path d="M659.6368898957802,1490A845.0128614159771,845.0128614159771 0,0,1 2349.6626127277345,1490" fill="none" stroke="gray" stroke-width="30" opacity="0.5"/><path d="M2264.4830606484693,1490A42.589776039632625,42.589776039632625 0,0,1 2349.6626127277345,1490" fill="none" stroke="gray" stroke-width="30" opacity="0.5"/><path d="M1362.3527699678577,1490A493.6549213799384,493.6549213799384 0,0,1 2349.6626127277345,1490" fill="none" stroke="gray" stroke-width="30" opacity="0.5"/><path d="M1958.490805723493,1490A195.5859035021208,195.5859035021208 0,0,1 2349.6626127277345,1490" fill="none" stroke="gray" stroke-width="30" opacity="0.5"/><path d="M1519.0105842205653,1490A415.3260142535846,415.3260142535846 0,0,1 2349.6626127277345,1490" fill="none" stroke="gray" stroke-width="30" opacity="0.5"/><path d="M2041.3675744446332,1490A154.14751914155067,154.14751914155067 0,0,1 2349.6626127277345,1490" fill="none" stroke="gray" stroke-width="30" opacity="0.5"/><path d="M2824.499356738375,1490A237.41837200532018,237.41837200532018 0,0,1 2349.6626127277345,1490" fill="none" stroke="gray" stroke-width="30" opacity="0.5"/></g><g id="nodes"><g><circle cx="20.18169700521828" cy="1490" r="20.18169700521828"/><text transform="translate(20.18169700521828,1515.1816970052182) rotate(-90)" alignment-baseline="middle" font-family="Helvetica, Arial, sans-serif" font-size="12" text-anchor="end">Malta</text></g><g><circle cx="107.7474163596248" cy="1490" r="22.749999999999996"/><text transform="translate(107.7474163596248,1517.75) rotate(-90)" alignment-baseline="middle" font-family="Helvetica, Arial, sans-serif" font-size="12" text-anchor="end">Finland</text></g><g><circle cx="200.71738489764212" cy="1490" r="25.585946188829094"/><text transform="translate(200.71738489764212,1520.585946188829) rotate(-90)" alignment-baseline="middle" font-family="Helvetica, Arial, sans-serif" font-size="12" text-anchor="end">Iceland</text></g><g><circle cx="296.5232996244886" cy="1490" r="25.585946188829094"/><text transform="translate(296.5232996244886,1520.585946188829) rotate(-90)" alignment-baseline="middle" font-family="Helvetica, Arial, sans-serif" font-size="12" text-anchor="end">Switzerland</text></g><g><circle cx="379.20652468061627" cy="1490" r="12.463256518110374"/><text transform="translate(379.20652468061627,1507.4632565181105) rotate(-90)" alignment-baseline="middle" font-family="Helvetica, Arial, sans-serif" font-size="12" text-anchor="end">Belgium</text></g><g><circle cx="448.76706006602524" cy="1490" r="12.463256518110374"/><text transform="translate(448.76706006602524,1507.4632565181105) rotate(-90)" alignment-baseline="middle" font-family="Helvetica, Arial, sans-serif" font-size="12" text-anchor="end">Denmark</text></g><g><circle cx="519.4217072881981" cy="1490" r="13.557368354874358"/><text transform="translate(519.4217072881981,1508.5573683548744) rotate(-90)" alignment-baseline="middle" font-family="Helvetica, Arial, sans-serif" font-size="12" text-anchor="end">Estonia</text></g><g><circle cx="590.0763545103712" cy="1490" r="12.463256518110374"/><text transform="translate(590.0763545103712,1507.4632565181105) rotate(-90)" alignment-baseline="middle" font-family="Helvetica, Arial, sans-serif" font-size="12" text-anchor="end">Germany</text></g><g><circle cx="659.6368898957802" cy="1490" r="12.463256518110374"/><text transform="translate(659.6368898957802,1507.4632565181105) rotate(-90)" alignment-baseline="middle" font-family="Helvetica, Arial, sans-serif" font-size="12" text-anchor="end">Ireland</text></g><g><circle cx="727.9872170902838" cy="1490" r="11.253048327204938"/><text transform="translate(727.9872170902838,1506.2530483272049) rotate(-90)" alignment-baseline="middle" font-family="Helvetica, Arial, sans-serif" font-size="12" text-anchor="end">Australia</text></g><g><circle cx="797.4316561215513" cy="1490" r="13.557368354874358"/><text transform="translate(797.4316561215513,1508.5573683548744) rotate(-90)" alignment-baseline="middle" font-family="Helvetica, Arial, sans-serif" font-size="12" text-anchor="end">Latvia</text></g><g><circle cx="871.1230468256139" cy="1490" r="15.5"/><text transform="translate(871.1230468256139,1510.5) rotate(-90)" alignment-baseline="middle" font-family="Helvetica, Arial, sans-serif" font-size="12" text-anchor="end">Norway</text></g><g><circle cx="951.4387661800205" cy="1490" r="20.18169700521828"/><text transform="translate(951.4387661800205,1515.1816970052182) rotate(-90)" alignment-baseline="middle" font-family="Helvetica, Arial, sans-serif" font-size="12" text-anchor="end">Lithuania</text></g><g><circle cx="1033.4659783713005" cy="1490" r="17.21149283687348"/><text transform="translate(1033.4659783713005,1512.2114928368735) rotate(-90)" alignment-baseline="middle" font-family="Helvetica, Arial, sans-serif" font-size="12" text-anchor="end">Sweden</text></g><g><circle cx="1110.8114935573622" cy="1490" r="15.5"/><text transform="translate(1110.8114935573622,1510.5) rotate(-90)" alignment-baseline="middle" font-family="Helvetica, Arial, sans-serif" font-size="12" text-anchor="end">Albania</text></g><g><circle cx="1192.4516125609603" cy="1490" r="21.506096654409877"/><text transform="translate(1192.4516125609603,1516.50609665441) rotate(-90)" alignment-baseline="middle" font-family="Helvetica, Arial, sans-serif" font-size="12" text-anchor="end">Greece</text></g><g><circle cx="1273.155239591614" cy="1490" r="14.563508027055537"/><text transform="translate(1273.155239591614,1509.5635080270556) rotate(-90)" alignment-baseline="middle" font-family="Helvetica, Arial, sans-serif" font-size="12" text-anchor="end">Cyprus</text></g><g><circle cx="1362.3527699678577" cy="1490" r="30"/><text transform="translate(1362.3527699678577,1525) rotate(-90)" alignment-baseline="middle" font-family="Helvetica, Arial, sans-serif" font-size="12" text-anchor="end">Italy</text></g><g><circle cx="1449.4500488351564" cy="1490" r="12.463256518110374"/><text transform="translate(1449.4500488351564,1507.4632565181105) rotate(-90)" alignment-baseline="middle" font-family="Helvetica, Arial, sans-serif" font-size="12" text-anchor="end">San Marino</text></g><g><circle cx="1519.0105842205653" cy="1490" r="12.463256518110374"/><text transform="translate(1519.0105842205653,1507.4632565181105) rotate(-90)" alignment-baseline="middle" font-family="Helvetica, Arial, sans-serif" font-size="12" text-anchor="end">Poland</text></g><g><circle cx="1588.5711196059742" cy="1490" r="12.463256518110374"/><text transform="translate(1588.5711196059742,1507.4632565181105) rotate(-90)" alignment-baseline="middle" font-family="Helvetica, Arial, sans-serif" font-size="12" text-anchor="end">Slovenia</text></g><g><circle cx="1656.9214468004775" cy="1490" r="11.253048327204938"/><text transform="translate(1656.9214468004775,1506.2530483272049) rotate(-90)" alignment-baseline="middle" font-family="Helvetica, Arial, sans-serif" font-size="12" text-anchor="end">North Macedonia</text></g><g><circle cx="1725.2717739949812" cy="1490" r="12.463256518110374"/><text transform="translate(1725.2717739949812,1507.4632565181105) rotate(-90)" alignment-baseline="middle" font-family="Helvetica, Arial, sans-serif" font-size="12" text-anchor="end">Georgia</text></g><g><circle cx="1801.8529985990535" cy="1490" r="19.483945736773844"/><text transform="translate(1801.8529985990535,1514.4839457367739) rotate(-90)" alignment-baseline="middle" font-family="Helvetica, Arial, sans-serif" font-size="12" text-anchor="end">Russia</text></g><g><circle cx="1880.5344747120712" cy="1490" r="14.563508027055537"/><text transform="translate(1880.5344747120712,1509.5635080270556) rotate(-90)" alignment-baseline="middle" font-family="Helvetica, Arial, sans-serif" font-size="12" text-anchor="end">Azerbaijan</text></g><g><circle cx="1958.490805723493" cy="1490" r="18.75880063517804"/><text transform="translate(1958.490805723493,1513.758800635178) rotate(-90)" alignment-baseline="middle" font-family="Helvetica, Arial, sans-serif" font-size="12" text-anchor="end">Moldova</text></g><g><circle cx="2041.3675744446332" cy="1490" r="19.483945736773844"/><text transform="translate(2041.3675744446332,1514.4839457367739) rotate(-90)" alignment-baseline="middle" font-family="Helvetica, Arial, sans-serif" font-size="12" text-anchor="end">Portugal</text></g><g><circle cx="2119.042910885469" cy="1490" r="13.557368354874358"/><text transform="translate(2119.042910885469,1508.5573683548744) rotate(-90)" alignment-baseline="middle" font-family="Helvetica, Arial, sans-serif" font-size="12" text-anchor="end">Romania</text></g><g><circle cx="2190.7916699444063" cy="1490" r="13.557368354874358"/><text transform="translate(2190.7916699444063,1508.5573683548744) rotate(-90)" alignment-baseline="middle" font-family="Helvetica, Arial, sans-serif" font-size="12" text-anchor="end">Czech Republic</text></g><g><circle cx="2264.4830606484693" cy="1490" r="15.5"/><text transform="translate(2264.4830606484693,1510.5) rotate(-90)" alignment-baseline="middle" font-family="Helvetica, Arial, sans-serif" font-size="12" text-anchor="end">Israel</text></g><g><circle cx="2349.6626127277345" cy="1490" r="25.045529730076648"/><text transform="translate(2349.6626127277345,1520.0455297300766) rotate(-90)" alignment-baseline="middle" font-family="Helvetica, Arial, sans-serif" font-size="12" text-anchor="end">Ukraine</text></g><g><circle cx="2438.826110543773" cy="1490" r="19.483945736773844"/><text transform="translate(2438.826110543773,1514.4839457367739) rotate(-90)" alignment-baseline="middle" font-family="Helvetica, Arial, sans-serif" font-size="12" text-anchor="end">Bulgaria</text></g><g><circle cx="2530.0843253768494" cy="1490" r="27.140246747113917"/><text transform="translate(2530.0843253768494,1522.140246747114) rotate(-90)" alignment-baseline="middle" font-family="Helvetica, Arial, sans-serif" font-size="12" text-anchor="end">France</text></g><g><circle cx="2614.321850991262" cy="1490" r="12.463256518110374"/><text transform="translate(2614.321850991262,1507.4632565181105) rotate(-90)" alignment-baseline="middle" font-family="Helvetica, Arial, sans-serif" font-size="12" text-anchor="end">Spain</text></g><g><circle cx="2682.6721781857655" cy="1490" r="11.253048327204938"/><text transform="translate(2682.6721781857655,1506.2530483272049) rotate(-90)" alignment-baseline="middle" font-family="Helvetica, Arial, sans-serif" font-size="12" text-anchor="end">The Netherlands</text></g><g><circle cx="2751.022505380269" cy="1490" r="12.463256518110374"/><text transform="translate(2751.022505380269,1507.4632565181105) rotate(-90)" alignment-baseline="middle" font-family="Helvetica, Arial, sans-serif" font-size="12" text-anchor="end">United Kingdom</text></g><g><circle cx="2824.499356738375" cy="1490" r="16.37957249080741"/><text transform="translate(2824.499356738375,1511.3795724908075) rotate(-90)" alignment-baseline="middle" font-family="Helvetica, Arial, sans-serif" font-size="12" text-anchor="end">Serbia</text></g><g><circle cx="2897.976208096481" cy="1490" r="12.463256518110374"/><text transform="translate(2897.976208096481,1507.4632565181105) rotate(-90)" alignment-baseline="middle" font-family="Helvetica, Arial, sans-serif" font-size="12" text-anchor="end">Austria</text></g><g><circle cx="2967.53674348189" cy="1490" r="12.463256518110374"/><text transform="translate(2967.53674348189,1507.4632565181105) rotate(-90)" alignment-baseline="middle" font-family="Helvetica, Arial, sans-serif" font-size="12" text-anchor="end">Croatia</text></g></g></g></svg>